<svg width="38" height="47" viewBox="0 0 38 47" fill="none" xmlns="http://www.w3.org/2000/svg">
<path d="M0 28.7259L9.65446 26.2919V44.3735L0 46.8076V28.7259Z" fill="#C4C4C4"/>
<path d="M18.7056 28.7259L28.36 26.2919V44.3735L18.7056 46.8076V28.7259Z" fill="#C4C4C4"/>
<path d="M18.7056 28.7259L9.65451 26.2919V44.3735L18.7056 46.8076V28.7259Z" fill="#DADADA"/>
<path d="M37.4111 28.7259L28.3601 26.2919V44.3735L37.4111 46.8076V28.7259Z" fill="#DADADA"/>
<path d="M30.9917 9.07958C29.8071 5.10295 26.6939 1.86721 22.8662 0.636497C18.8153 -0.667214 14.505 0.0572974 11.2152 2.57603C7.94961 5.07703 6 9.08367 6 13.2929C6 16.1971 6.88452 18.956 8.55636 21.2707L18.8087 34.9293L29.0605 21.2701C31.5636 17.803 32.2676 13.3598 30.9917 9.07958ZM18.8087 20.4582C15.006 20.4582 11.9119 17.2436 11.9119 13.2929C11.9119 9.34223 15.006 6.12764 18.8087 6.12764C22.6114 6.12764 25.7056 9.34223 25.7056 13.2929C25.7056 17.2436 22.6114 20.4582 18.8087 20.4582Z" fill="#E64335"/>
</svg>
