<svg width="30" height="65" viewBox="0 0 30 65" fill="none" xmlns="http://www.w3.org/2000/svg">
<path d="M20.0703 2L24.0474 7.9939C25.4657 10.1314 24.6327 13.0305 22.2961 14.0891L20.0043 15.1274C17.5965 16.2182 16.8013 19.2474 18.3629 21.3802L19.1929 22.5138C20.7544 24.6466 19.9592 27.6758 17.5515 28.7666L15.5319 29.6816C13.1054 30.7809 12.3209 33.8445 13.9204 35.9748L14.5221 36.7761C16.1544 38.9501 15.2996 42.0798 12.7887 43.1221L11.1999 43.7817C8.7633 44.7932 7.86955 47.7868 9.35278 49.9686L10.3061 51.371C11.7999 53.5683 10.8816 56.5836 8.41651 57.5752L2.00012 60.1562" stroke="#E64335" stroke-width="4.16403"/>
</svg>
