<svg width="23" height="29" viewBox="0 0 23 29" fill="none" xmlns="http://www.w3.org/2000/svg">
<g clip-path="url(#clip0)">
<path d="M22.4404 7.53842C21.3768 4.23684 18.5814 1.55037 15.1445 0.528575C11.5071 -0.553828 7.63679 0.0476959 4.68278 2.13887C1.75059 4.21531 0 7.54182 0 11.0365C0 13.4477 0.794222 15.7383 2.2954 17.6601L11.5012 29.0001L20.7064 17.6595C22.954 14.7811 23.5861 11.0921 22.4404 7.53842ZM11.5012 16.9855C8.08667 16.9855 5.30837 14.3166 5.30837 11.0365C5.30837 7.75649 8.08667 5.08758 11.5012 5.08758C14.9157 5.08758 17.694 7.75649 17.694 11.0365C17.694 14.3166 14.9157 16.9855 11.5012 16.9855Z" fill="#E64335"/>
</g>
<defs>
<clipPath id="clip0">
<rect width="23" height="29" fill="white"/>
</clipPath>
</defs>
</svg>
