<svg width="29" height="10" viewBox="0 0 29 10" fill="none" xmlns="http://www.w3.org/2000/svg">
<rect x="20.7701" y="3.40632" width="3.29684" height="14.8358" transform="rotate(90 20.7701 3.40632)" fill="#161616"/>
<path fill-rule="evenodd" clip-rule="evenodd" d="M28.3528 2.25001C27.4585 0.894448 25.9219 -1.06258e-07 24.1764 -1.82558e-07C21.4149 -3.03263e-07 19.1764 2.23857 19.1764 5C19.1764 7.76142 21.4149 9.99999 24.1764 9.99999C25.8122 9.99999 27.2645 9.21445 28.1767 8.00001L26.3018 8.00001C24.714 8.00001 23.4268 6.71283 23.4268 5.12501C23.4268 3.53719 24.714 2.25001 26.3018 2.25001L28.3528 2.25001Z" fill="#161616"/>
<path fill-rule="evenodd" clip-rule="evenodd" d="M5.67633 5.12501C5.67633 3.53719 4.38915 2.25001 2.80133 2.25001L9.43516e-07 2.25001C0.894366 0.894448 2.43097 1.7493e-06 4.17649 1.97819e-06C6.93791 2.34031e-06 9.17649 2.23858 9.17649 5C9.17649 7.76142 6.93791 10 4.17649 10C2.54068 10 1.08834 9.21445 0.176133 8L2.80133 8C4.38915 8 5.67633 6.71282 5.67633 5.12501Z" fill="#161616"/>
</svg>
