<?xml version="1.0" encoding="UTF-8"?>
<!-- Generator: Adobe Illustrator 18.1.1, SVG Export Plug-In . SVG Version: 6.00 Build 0)  -->
<svg version="1.1" id="Calque_1" xmlns="http://www.w3.org/2000/svg" xmlns:xlink="http://www.w3.org/1999/xlink" x="0px" y="0px" viewBox="0 0 104 103.1" enable-background="new 0 0 104 103.1" xml:space="preserve">
<polygon fill="#67B662" points="74.6,0.9 56.8,2.5 48.9,51.5 73.2,29.9 81,22.9 "/>
<polygon fill="#FFC20E" points="92.2,42.9 73.2,29.9 48.9,51.5 "/>
<polygon fill="#F04E3E" points="85.2,67.8 48.9,51.5 92.2,42.9 97.6,61.7 "/>
<polygon fill="#0088C7" points="58.4,102.3 99.7,80.7 85.2,67.8 48.9,51.5 "/>
<polygon fill="#154396" points="24.2,67.8 33.3,95.5 58.4,102.3 48.9,51.5 "/>
<polygon points="11.8,52.7 3.5,53 0.7,64.9 24.2,67.8 48.9,51.5 "/>
<polygon fill="#909092" points="12.9,29.9 14.7,30.9 48.9,51.5 11.8,52.7 "/>
<polygon fill="#B0B0B0" points="20.2,16.4 55.5,10.8 48.9,51.5 12.9,29.9 "/>
</svg>